<svg xmlns="http://www.w3.org/2000/svg" width="74" height="15"><g fill="none" fill-rule="evenodd"><path fill="#00C73C" d="M0 15h15V0H0v15zM8.728 4.067h2.522v6.867H8.693l-2.42-3.555v3.555H3.75V4.067h2.558l2.42 3.553V4.067z"/><path fill="#FFF" d="M20.469 3.612h2.166v1.083c.124-.162.259-.316.406-.463.147-.147.311-.278.492-.392.18-.114.382-.204.605-.27.224-.067.473-.1.748-.1.504 0 .939.104 1.304.313.366.209.649.508.848.898.333-.4.703-.7 1.112-.905a3.08 3.08 0 011.396-.306c.808 0 1.44.237 1.896.712.456.475.684 1.173.684 2.095v4.973H29.96V6.99c0-.514-.11-.9-.328-1.162-.219-.261-.532-.392-.94-.392-.41 0-.73.13-.963.392-.232.261-.349.648-.349 1.161v4.261h-2.166V6.99c0-.514-.109-.9-.327-1.162-.219-.261-.532-.392-.941-.392-.409 0-.73.13-.962.392-.233.261-.349.648-.349 1.161v4.261h-2.166V3.612zm17.076 5.942c.314 0 .592-.054.834-.164.242-.109.449-.258.62-.449a2 2 0 00.392-.662c.09-.252.135-.52.135-.805v-.029a2.24 2.24 0 00-.143-.805 2.03 2.03 0 00-1.054-1.133 1.915 1.915 0 00-.812-.17c-.314 0-.592.054-.834.163-.242.11-.449.259-.62.449-.17.19-.301.41-.392.663a2.37 2.37 0 00-.135.805v.028c0 .285.047.554.142.805a2.03 2.03 0 001.048 1.133 1.9 1.9 0 00.82.171zm-.028 1.867a4.318 4.318 0 01-1.639-.306 4.001 4.001 0 01-1.304-.841 3.914 3.914 0 01-.862-1.254 3.829 3.829 0 01-.314-1.546v-.029c0-.55.105-1.066.314-1.546.209-.48.499-.9.87-1.261a4.12 4.12 0 011.31-.855 4.27 4.27 0 011.653-.313c.59 0 1.135.102 1.639.306.504.204.938.484 1.304.84.366.357.653.775.862 1.255.209.48.313.995.313 1.546v.028c0 .551-.104 1.067-.313 1.546-.209.48-.499.9-.87 1.261a4.12 4.12 0 01-1.31.855 4.27 4.27 0 01-1.653.314zm9.167-1.867a1.721 1.721 0 001.304-.577c.166-.185.3-.408.4-.67.099-.26.149-.548.149-.862v-.028c0-.314-.05-.601-.15-.862a2.126 2.126 0 00-.399-.67 1.721 1.721 0 00-1.304-.577 1.744 1.744 0 00-1.31.577 2.072 2.072 0 00-.407.663c-.1.256-.15.546-.15.869v.028c0 .314.05.601.15.862.1.262.235.485.406.67a1.744 1.744 0 001.311.577zm-.555 1.838c-.447 0-.88-.085-1.297-.256a3.209 3.209 0 01-1.112-.762 3.799 3.799 0 01-.776-1.24c-.195-.49-.293-1.052-.293-1.689v-.028c0-.637.098-1.2.293-1.689.194-.49.45-.902.77-1.24a3.139 3.139 0 011.104-.762 3.43 3.43 0 011.31-.256c.58 0 1.057.113 1.433.341.375.229.69.494.947.798V.848h2.166V11.25h-2.166v-1.097a3.434 3.434 0 01-.962.89c-.375.233-.847.35-1.417.35zM56.15 9.555a2 2 0 00.834-.164c.242-.109.448-.258.62-.449.17-.19.301-.41.391-.662.09-.252.136-.52.136-.805v-.029c0-.285-.048-.553-.143-.805a2.03 2.03 0 00-1.054-1.133 1.915 1.915 0 00-.813-.17c-.313 0-.59.054-.833.163-.242.11-.449.259-.62.449-.171.19-.302.41-.392.663a2.37 2.37 0 00-.135.805v.028c0 .285.047.554.142.805a2.03 2.03 0 001.048 1.133c.242.114.515.171.819.171zm-.029 1.867a4.318 4.318 0 01-1.638-.306 4.001 4.001 0 01-1.304-.841 3.914 3.914 0 01-.862-1.254 3.829 3.829 0 01-.314-1.546v-.029c0-.55.105-1.066.314-1.546.209-.48.498-.9.869-1.261a4.12 4.12 0 011.311-.855 4.27 4.27 0 011.653-.313c.589 0 1.135.102 1.639.306.503.204.938.484 1.304.84.365.357.653.775.862 1.255.209.48.313.995.313 1.546v.028c0 .551-.104 1.067-.313 1.546-.21.48-.499.9-.87 1.261a4.12 4.12 0 01-1.31.855 4.27 4.27 0 01-1.654.314zm9.253-1.867c.314 0 .592-.054.834-.164.242-.109.449-.258.62-.449.171-.19.302-.41.392-.662.09-.252.135-.52.135-.805v-.029c0-.285-.047-.553-.142-.805a2.03 2.03 0 00-1.055-1.133 1.915 1.915 0 00-.812-.17c-.314 0-.591.054-.834.163-.242.11-.448.259-.62.449-.17.19-.301.41-.391.663a2.37 2.37 0 00-.136.805v.028c0 .285.048.554.143.805a2.03 2.03 0 001.047 1.133 1.9 1.9 0 00.82.171zm-.028 1.867a4.318 4.318 0 01-1.639-.306 4.001 4.001 0 01-1.304-.841 3.914 3.914 0 01-.862-1.254 3.829 3.829 0 01-.313-1.546v-.029c0-.55.104-1.066.313-1.546.21-.48.499-.9.87-1.261a4.12 4.12 0 011.31-.855 4.27 4.27 0 011.653-.313c.59 0 1.136.102 1.64.306.503.204.937.484 1.303.84.366.357.653.775.862 1.255.21.48.314.995.314 1.546v.028c0 .551-.105 1.067-.314 1.546-.209.48-.498.9-.869 1.261a4.12 4.12 0 01-1.311.855 4.27 4.27 0 01-1.653.314zm5.662-2.451h2.308v2.28H71.01V8.97zm-.114-7.41v-.285h2.536v.285l-.67 6.299h-1.196l-.67-6.299z" opacity=".8"/></g></svg>